<?xml version="1.0" encoding="UTF-8"?><svg id="Layer_1" xmlns="http://www.w3.org/2000/svg" xmlns:xlink="http://www.w3.org/1999/xlink" viewBox="0 0 470.45 487.79"><defs><style>.cls-1{letter-spacing:.02em;}.cls-2{fill:#d55127;font-family:Arya-Triple-Alt, Arya;}.cls-3{letter-spacing:-.04em;}.cls-4{font-size:41px;}.cls-5{letter-spacing:.06em;}.cls-6{fill:#231f20;font-family:Bahnschrift, Bahnschrift;font-size:10px;font-variation-settings:'wght' 400, 'wdth' 100;}.cls-7{letter-spacing:0em;}.cls-8{letter-spacing:-.07em;}.cls-9{letter-spacing:-.04em;}.cls-10{letter-spacing:.05em;}.cls-11{letter-spacing:-.02em;}.cls-12{letter-spacing:-.02em;}.cls-13{letter-spacing:0em;}.cls-14{letter-spacing:0em;}.cls-15{letter-spacing:-.03em;}.cls-16{letter-spacing:.04em;}.cls-17{font-size:26px;}</style></defs><image width="2100" height="1057" transform="translate(0 269.77) scale(.21)" xlink:href="FlowerArbor New Colors.png"/><text class="cls-2" transform="translate(48.52 46.04)"><tspan class="cls-4"><tspan x="0" y="0">Anna Windsor</tspan></tspan><tspan class="cls-17"><tspan x="158.68" y="31.2">+</tspan></tspan><tspan class="cls-4"><tspan x="-12.22" y="80.4">Richard Carder</tspan></tspan></text><text class="cls-6" transform="translate(116.04 174.75)"><tspan x="0" y="0">I</tspan><tspan class="cls-1" x="2.75" y="0">N</tspan><tspan class="cls-14" x="9.95" y="0">V</tspan><tspan class="cls-16" x="15.87" y="0">I</tspan><tspan class="cls-1" x="19.01" y="0">T</tspan><tspan x="24.02" y="0">E </tspan><tspan class="cls-13" x="32.69" y="0">Y</tspan><tspan class="cls-12" x="37.62" y="0">O</tspan><tspan x="43.88" y="0">U TO </tspan><tspan class="cls-13" x="67.07" y="0">C</tspan><tspan x="73.16" y="0">ELEB</tspan><tspan class="cls-11" x="97.3" y="0">R</tspan><tspan class="cls-12" x="103.57" y="0">A</tspan><tspan class="cls-1" x="109.85" y="0">T</tspan><tspan x="114.86" y="0">E </tspan><tspan class="cls-1" x="123.53" y="0">T</tspan><tspan x="128.54" y="0">HEIR </tspan><tspan class="cls-13" x="153.26" y="0">M</tspan><tspan x="160.95" y="0">ARR</tspan><tspan class="cls-13" x="180.46" y="0">I</tspan><tspan class="cls-3" x="183.12" y="0">A</tspan><tspan class="cls-13" x="189.2" y="0">G</tspan><tspan x="195.57" y="0">E</tspan><tspan class="cls-15" x="37.73" y="24">S</tspan><tspan class="cls-12" x="43.6" y="24">A</tspan><tspan x="49.88" y="24">T</tspan><tspan class="cls-13" x="54.69" y="24">U</tspan><tspan x="61.15" y="24">R</tspan><tspan class="cls-15" x="67.67" y="24">D</tspan><tspan class="cls-9" x="73.94" y="24">A</tspan><tspan class="cls-8" x="79.97" y="24">Y</tspan><tspan x="84.32" y="24">, </tspan><tspan class="cls-12" x="89.27" y="24">O</tspan><tspan x="95.53" y="24">CT</tspan><tspan class="cls-13" x="106.53" y="24">O</tspan><tspan x="112.89" y="24">BER 1, 2022</tspan><tspan class="cls-12" x="35.32" y="36">A</tspan><tspan x="41.59" y="36">T F</tspan><tspan class="cls-12" x="54.69" y="36">O</tspan><tspan class="cls-13" x="60.95" y="36">U</tspan><tspan x="67.4" y="36">R IN </tspan><tspan class="cls-1" x="89.05" y="36">T</tspan><tspan x="94.06" y="36">HE A</tspan><tspan class="cls-10" x="115.98" y="36">F</tspan><tspan class="cls-1" x="122.11" y="36">T</tspan><tspan x="127.12" y="36">ERN</tspan><tspan class="cls-12" x="146.61" y="36">O</tspan><tspan class="cls-13" x="152.87" y="36">O</tspan><tspan x="159.23" y="36">N</tspan><tspan class="cls-7" x="51.56" y="60">L</tspan><tspan x="57.39" y="60">ADY </tspan><tspan class="cls-12" x="78.14" y="60">LU</tspan><tspan class="cls-13" x="90.03" y="60">C</tspan><tspan x="96.12" y="60">K </tspan><tspan class="cls-15" x="105.22" y="60">G</tspan><tspan x="111.4" y="60">AR</tspan><tspan class="cls-13" x="124.39" y="60">D</tspan><tspan x="130.85" y="60">ENS</tspan><tspan x="49.58" y="72">55 </tspan><tspan class="cls-7" x="63.15" y="72">L</tspan><tspan x="68.98" y="72">ANZI LE</tspan><tspan class="cls-12" x="105.05" y="72">D</tspan><tspan class="cls-13" x="111.42" y="72">G</tspan><tspan x="117.78" y="72">E </tspan><tspan class="cls-12" x="126.45" y="72">R</tspan><tspan class="cls-15" x="132.77" y="72">O</tspan><tspan x="138.93" y="72">AD</tspan><tspan x="32.57" y="84">LEI</tspan><tspan class="cls-13" x="47.03" y="84">C</tspan><tspan x="53.12" y="84">ES</tspan><tspan class="cls-1" x="65.25" y="84">T</tspan><tspan x="70.26" y="84">ER, N</tspan><tspan class="cls-13" x="94.71" y="84">O</tspan><tspan x="101.07" y="84">R</tspan><tspan class="cls-1" x="107.59" y="84">T</tspan><tspan x="112.6" y="84">H </tspan><tspan class="cls-15" x="122.07" y="84">C</tspan><tspan x="127.96" y="84">A</tspan><tspan class="cls-12" x="134.44" y="84">R</tspan><tspan class="cls-13" x="140.76" y="84">O</tspan><tspan x="147.12" y="84">LI</tspan><tspan class="cls-13" x="155.6" y="84">N</tspan><tspan x="162.51" y="84">A</tspan><tspan x="47.14" y="108">RE</tspan><tspan class="cls-13" x="59.63" y="108">C</tspan><tspan x="65.72" y="108">E</tspan><tspan class="cls-5" x="71.7" y="108">P</tspan><tspan class="cls-1" x="78.51" y="108">T</tspan><tspan x="83.52" y="108">I</tspan><tspan class="cls-13" x="86.27" y="108">O</tspan><tspan x="92.63" y="108">N TO F</tspan><tspan class="cls-13" x="121.86" y="108">O</tspan><tspan x="128.22" y="108">L</tspan><tspan class="cls-12" x="133.95" y="108">L</tspan><tspan x="139.49" y="108">OW</tspan></text><text/></svg>